# xmcd
#
# Track frame offsets:
#	150
#	20995
#	37308
#	53559
#	68827
#	86724
#	103271
#	116999
#	133641
#	148390
#	161260
#	177360
#	190785
#	208048
#	222917
#	239409
#	254065
#	272203
#	293468
#	307848
#
# Disc length: 4333 seconds
#
# Revision: 0
# Processed by: cddbd v1.5.2PL0 Copyright (c) Steve Scherf et al.
# Submitted via: EZCDAudioConverter 3.1.0.1
#
DISCID=3e10eb14
DTITLE=Louro Santos and Victor Santos - Amor Eterno
DYEAR=2011
DGENRE=Sertanejo
TTITLE0=Retrato
TTITLE1=Se Tu Não Estás
TTITLE2=Virou Minha Cabeça
TTITLE3=Tô Falando Sério
TTITLE4=Anjo
TTITLE5=Minha Preferida
TTITLE6=Amor Eterno
TTITLE7=Entre Eu e Você
TTITLE8=Vou Fazer Pirraça
TTITLE9=She's Out Of My Life
TTITLE10=Locutor
TTITLE11=Paquerar
TTITLE12=Sonho de Amor
TTITLE13=Tô Fora
TTITLE14=Bandido do Amor
TTITLE15=24hs de Paixão
TTITLE16=Ficar com Você
TTITLE17=Morrer de Amor
TTITLE18=Geral Saber
TTITLE19=Diz Pra Mim
EXTD=
EXTT0=
EXTT1=
EXTT2=
EXTT3=
EXTT4=
EXTT5=
EXTT6=
EXTT7=
EXTT8=
EXTT9=
EXTT10=
EXTT11=
EXTT12=
EXTT13=
EXTT14=
EXTT15=
EXTT16=
EXTT17=
EXTT18=
EXTT19=
PLAYORDER=
